# xmcd CD database file
#
# Track frame offsets:
#	150
#	13542
#	24025
#	39592
#	53200
#	75485
#	90260
#	100567
#	110487
#	128037
#	140680
#	149750
#	160300
#	181232
#	194520
#	209365
#	229377
#	250437
#	264982
#	291857
#	302487
#	315682
#
# Disc length: 4378 seconds
#
# Revision: 1
# Processed by: cddbd v1.5.2PL0 Copyright (c) Steve Scherf et al.
# Submitted via: CDex 1.51
#
DISCID=2e111816
DTITLE=Alan Price - Live In Concert [Tring]
DYEAR=1982
DGENRE=Blues
TTITLE0=Arrival
TTITLE1=O Lucky Man
TTITLE2=Left Over People
TTITLE3=Away Away
TTITLE4=Under The Sun
TTITLE5=In Times Like These
TTITLE6=Simon Smith and His Amazing Dancing Bear
TTITLE7=Poor People
TTITLE8=Sell Sell Sell
TTITLE9=Justice
TTITLE10=Look Over Your Shoulder
TTITLE11=Keep On Rollin'
TTITLE12=City Lights
TTITLE13=Hi-Lili, Hi-Lo
TTITLE14=I Put A Spell On You
TTITLE15=It Takes Me Back
TTITLE16=Between Today And Yesterday
TTITLE17=Changes
TTITLE18=The Jarrow Song
TTITLE19=Don't Stop The Carnival
TTITLE20=House That Jack Built
TTITLE21=Shame
EXTD=YEAR: 1982
EXTT0=
EXTT1=
EXTT2=
EXTT3=
EXTT4=
EXTT5=
EXTT6=
EXTT7=
EXTT8=
EXTT9=
EXTT10=
EXTT11=
EXTT12=
EXTT13=
EXTT14=
EXTT15=
EXTT16=
EXTT17=
EXTT18=
EXTT19=
EXTT20=
EXTT21=
PLAYORDER=
